<svg id="Layer_1" data-name="Layer 1" xmlns="http://www.w3.org/2000/svg" viewBox="0 0 325.99 484.52"><title>icon</title><path d="M396.41,386.15H365.83V530.51h-85.2c-1.66-10.56,4-17.21,15.42-18,4.05-.28,8.1-.44,11.88-.65l2.13,5.88,1.28-.34.72-5.74,1.06-.16,1,5.72,1.35.6c.63-1.7,1.27-3.4,2-5.28.2,1.53.4,3,.61,4.52l1.31.69,2-4.75,1.64,4.87c3.19-10.54,4.22-106.53,2.64-131.8H311.78c-11.91,0-18.43-6.62-18.44-18.73q0-27.27,0-54.55V177.41H468.71v5.37q0,89.72,0,179.44a45.19,45.19,0,0,1-1.23,10.95c-2.13,8.31-8.41,12.85-17.12,12.9-4.56,0-9.12,0-13.63,0-1.35,7.8-.5,122.25,2.26,131.76.61-1.73,1.23-3.46,1.67-4.72l2.32,4.41c.63-1.55,1.25-3.1,1.79-4.45.53,1.35,1.21,3.06,1.88,4.77l1.39-.48c.24-1.9.49-3.81.74-5.71l1.08-.12c.31,1.94.63,3.88.94,5.83l1.15.41,2.25-5.79c8.66,0,18.22-.8,24.89,6.68,2.43,2.72,2.53,7.51,3.88,12H396.41Z" transform="translate(-222.91 -55.54)"/><path d="M431.61,80.79c13.85,8,24.67,18.39,31.5,32.2,5.37,10.87,9.68,22.26,14.21,33.53,1,2.55,1,5.52,1.51,8.72H283c2.57-26.11,21.16-55.89,46.73-74.76-4.32-7-8.67-14-12.86-21.1-.28-.47.72-1.7,1.71-3.84,3.47,4.55,6.59,8.32,9.35,12.32,6.44,9.36,6.28,9.13,17,5.44,13.2-4.55,26.87-7.38,40.87-6.22A114.58,114.58,0,0,1,427,78.19L442.52,56.3l2.16.62c-.21,1.89.17,4.14-.73,5.58C440.16,68.55,436,74.36,431.61,80.79Z" transform="translate(-222.91 -55.54)"/><path d="M539.06,258.56c0,15.63.26,31.26-.08,46.88-.27,12.29-1.15,24.57-2,36.83-.28,3.8.89,5.6,4.5,7,8.89,3.39,8.64,3.53,5.41,12.2-6.78,18.2-13.4,36.47-20,54.74-2.22,6.13-2.89,6.73-9,4.45-4.49-1.68-8.62-4.34-13.13-6-5.65-2-11.49-3.55-17.3-5.13-4.15-1.13-5.23-3.13-3.59-7.37,3.88-10.05,7.37-20.25,10.8-30.47A5.86,5.86,0,0,0,494,367c-3.63-4.8-5.93-9.88-6-16q-.41-75.58-1-151.16A23.8,23.8,0,0,1,510.52,176c15.07-.26,23.58,5.55,27.72,19.05a18.53,18.53,0,0,1,.78,5.38C539.08,219.84,539.06,239.2,539.06,258.56Z" transform="translate(-222.91 -55.54)"/><path d="M275,258.12c0,19,.12,38.05,0,57.07-.12,12.85-.55,25.7-1.05,38.54-.37,9.39-8.93,18.68-18.73,21.12-16.35,4.08-30.06-9.72-30.25-24.06-.44-33.51-1.39-67-1.92-100.52-.26-16.31,0-32.62-.05-48.92,0-14.43,10.09-23.33,21.07-25.17,14.86-2.49,27.79,5.48,30.56,18.82,1.15,5.54.4,11.49.41,17.26C275.06,227.55,275,242.83,275,258.12Z" transform="translate(-222.91 -55.54)"/><path d="M365.68,536.13c-.31,4.09-3.13,3.89-5.77,3.89H313.56c-9.68,0-19.36.12-29-.1-2,0-3.91-1.38-5.86-2.11l.62-1.69Z" transform="translate(-222.91 -55.54)"/><path d="M396.72,536h86.09c0,4.31-3,4-5.48,4-9.51.06-19,0-28.52,0-15.46,0-30.91.07-46.36-.09-2.16,0-4.3-1.22-6.45-1.88Z" transform="translate(-222.91 -55.54)"/></svg>