<?xml version="1.0" standalone="no"?>
<!DOCTYPE svg PUBLIC "-//W3C//DTD SVG 20010904//EN"
 "http://www.w3.org/TR/2001/REC-SVG-20010904/DTD/svg10.dtd">
<svg version="1.0" xmlns="http://www.w3.org/2000/svg"
 width="1808.000000pt" height="1808.000000pt" viewBox="0 0 1808.000000 1808.000000"
 preserveAspectRatio="xMidYMid meet">
<metadata>
Created by potrace 1.11, written by Peter Selinger 2001-2013
</metadata>
<g transform="translate(0.000000,1808.000000) scale(0.100000,-0.100000)"
fill="#000000" stroke="none">
<path d="M4 13051 c-2 -2 -4 -1810 -4 -4018 l0 -4013 212 2 213 3 0 3633 c0
1997 0 3632 1 3632 1 0 21 -28 45 -62 24 -35 57 -83 73 -107 17 -24 38 -53 46
-66 14 -21 92 -135 211 -308 31 -45 64 -90 73 -99 9 -10 16 -21 16 -25 0 -3
22 -37 49 -74 27 -37 55 -78 62 -90 6 -13 15 -26 18 -29 3 -3 26 -34 51 -70
24 -36 58 -85 75 -110 17 -25 62 -90 100 -145 38 -55 73 -101 77 -103 4 -2 8
-10 8 -17 0 -8 6 -20 13 -27 7 -7 44 -58 81 -113 38 -55 73 -101 77 -103 5 -2
9 -8 9 -14 0 -6 15 -31 33 -57 19 -25 74 -104 122 -176 48 -71 96 -139 106
-150 9 -11 25 -34 36 -51 18 -32 61 -94 228 -334 50 -71 140 -202 200 -290 61
-88 174 -253 253 -366 78 -113 142 -209 142 -214 0 -5 4 -10 8 -12 4 -1 43
-55 87 -118 74 -109 108 -157 208 -302 24 -35 74 -108 112 -163 38 -55 72
-101 77 -103 4 -2 8 -8 8 -13 0 -5 16 -33 37 -62 105 -151 128 -183 138 -189
6 -5 6 -8 0 -8 -5 0 -3 -6 5 -13 8 -7 21 -24 28 -38 8 -14 25 -39 39 -55 14
-16 29 -38 34 -49 5 -11 23 -38 39 -60 17 -22 50 -69 74 -105 101 -151 190
-275 198 -278 4 -2 8 -8 8 -14 0 -9 50 -85 75 -114 6 -7 64 -92 130 -189 66
-97 154 -225 195 -284 41 -59 80 -115 85 -123 6 -9 48 -71 95 -138 47 -67 90
-129 95 -138 6 -10 13 -19 16 -22 5 -5 96 -138 114 -167 6 -10 18 -26 28 -37
9 -11 17 -23 17 -27 0 -4 6 -14 13 -21 19 -20 77 -105 77 -113 0 -3 6 -12 13
-19 7 -7 43 -58 80 -112 38 -54 104 -151 148 -214 44 -63 92 -133 106 -155 14
-22 29 -42 33 -45 4 -3 10 -15 14 -27 4 -13 11 -23 15 -23 5 0 24 -25 42 -55
18 -30 37 -55 41 -55 4 0 8 -6 8 -13 0 -7 9 -23 20 -34 16 -18 63 -85 105
-151 6 -9 16 -22 23 -30 6 -7 12 -17 12 -21 0 -4 8 -16 18 -27 9 -10 34 -45
55 -76 l37 -58 191 0 190 0 -1 63 c-1 101 -2 361 -1 377 0 8 0 62 0 120 -1 58
-1 112 0 120 0 8 0 62 0 120 -1 58 -1 112 0 120 0 8 0 62 0 120 -1 58 -1 112
0 120 0 8 0 62 0 120 -1 58 -1 112 0 120 0 8 0 80 0 160 -1 80 -1 152 0 160 0
8 0 62 0 120 -1 58 -1 112 0 120 0 8 0 62 0 120 -1 58 -1 112 0 120 0 8 0 62
0 120 -1 58 -1 112 0 120 0 8 0 62 0 120 -1 58 -1 112 0 120 0 8 0 62 0 120
-1 58 -1 112 0 120 0 8 0 62 0 120 -1 58 -1 112 0 120 0 8 0 62 0 120 -1 58
-1 111 0 118 1 15 1 29 2 117 0 39 0 75 0 80 1 6 1 57 0 115 0 58 0 112 0 120
1 8 1 62 0 120 0 58 0 112 0 120 0 8 0 35 0 60 0 25 -1 53 0 63 0 9 0 46 0 82
0 36 0 72 0 80 0 8 0 44 0 80 0 36 0 72 0 80 0 8 0 44 0 80 0 36 0 71 0 78 0
6 0 68 0 137 0 69 0 132 1 140 0 8 0 62 -1 120 0 58 0 112 0 120 1 8 1 62 0
120 0 58 0 112 0 120 1 8 1 62 0 120 0 58 0 112 0 120 1 8 1 62 0 120 0 58 0
112 0 120 1 8 1 53 0 100 0 47 0 93 0 103 0 9 0 46 0 82 0 36 0 72 0 80 0 8 0
44 0 80 0 36 0 72 0 80 0 8 0 44 0 80 0 36 0 71 0 78 0 16 -1 157 -2 287 -1
58 -1 112 0 120 0 8 0 62 0 120 -1 58 -1 111 0 118 1 15 1 29 2 117 0 39 0 75
0 80 1 6 1 57 0 115 0 58 0 112 0 120 1 8 0 62 -1 120 -1 58 -1 110 0 115 1 6
2 38 1 73 l-1 62 -213 0 -212 0 0 -3645 c0 -2005 -1 -3645 -2 -3645 0 0 -13
20 -27 44 -14 25 -32 51 -39 58 -11 12 -35 47 -62 89 -33 53 -120 175 -127
177 -4 2 -8 8 -8 12 0 8 -62 103 -87 135 -29 35 -103 147 -103 155 0 4 -3 10
-8 12 -4 2 -30 37 -57 78 -28 41 -52 77 -56 80 -3 3 -49 70 -104 150 -54 80
-102 147 -106 148 -5 2 -9 8 -9 14 0 6 -11 26 -25 44 -14 18 -25 37 -25 43 0
6 -4 11 -9 11 -5 0 -24 25 -42 55 -18 30 -37 55 -41 55 -4 0 -8 5 -8 11 0 11
-48 79 -65 91 -7 5 -7 8 0 8 6 0 6 3 -1 8 -5 4 -39 50 -75 102 -35 52 -67 97
-71 98 -5 2 -8 8 -8 14 0 10 -49 79 -65 90 -5 4 -6 8 -2 8 5 0 2 6 -5 14 -11
12 -136 190 -163 233 -15 24 -154 226 -168 244 -7 8 -16 23 -22 32 -32 53
-220 323 -227 325 -4 2 -8 8 -8 14 0 10 -49 79 -65 90 -7 5 -7 8 0 8 7 0 7 3
0 8 -6 4 -35 43 -65 87 -30 44 -58 82 -62 83 -4 2 -8 7 -8 12 0 11 -220 333
-234 342 -7 5 -7 8 -1 8 6 0 2 5 -7 11 -10 5 -18 16 -18 23 0 7 -9 21 -20 31
-11 10 -20 24 -20 31 0 7 -3 14 -7 16 -5 2 -26 30 -49 63 -23 33 -67 98 -99
145 -32 47 -85 123 -116 170 -32 47 -62 90 -66 95 -5 6 -53 75 -108 155 -54
80 -113 165 -130 190 -17 25 -76 110 -130 190 -54 80 -101 147 -104 150 -4 3
-12 17 -20 33 -8 15 -18 27 -23 27 -4 0 -8 7 -8 15 0 8 -4 15 -8 15 -5 0 -15
12 -23 28 -8 15 -17 29 -20 32 -3 3 -25 34 -49 70 -24 36 -47 67 -52 68 -4 2
-8 8 -8 13 0 7 -56 95 -70 109 -6 6 -15 20 -121 173 -41 60 -78 116 -84 125
-5 10 -12 19 -15 22 -3 3 -23 32 -46 65 -66 98 -193 283 -266 388 -37 54 -68
102 -68 106 0 5 -7 11 -15 15 -8 3 -15 11 -15 17 0 7 -7 21 -17 31 -9 10 -21
27 -27 37 -6 11 -50 75 -97 143 -158 227 -179 259 -179 269 0 5 -4 9 -9 9 -7
0 -68 87 -80 115 -2 5 -9 15 -15 22 -29 33 -36 43 -36 53 0 5 -3 10 -8 10 -4
0 -12 9 -17 19 -6 11 -57 87 -115 170 -58 84 -112 162 -120 175 -30 46 -124
181 -129 186 -3 3 -10 13 -16 22 -10 17 -85 130 -92 137 -4 6 -383 7 -389 2z"/>
<path d="M7201 12963 c16 -54 31 -107 33 -118 3 -11 10 -36 16 -55 7 -19 13
-44 15 -55 2 -11 13 -47 24 -80 11 -33 21 -68 21 -78 0 -9 4 -25 10 -35 5 -9
16 -42 24 -72 8 -30 29 -104 46 -165 17 -60 33 -121 36 -134 3 -14 8 -29 12
-35 3 -6 7 -16 8 -23 2 -14 42 -155 54 -193 5 -14 12 -38 16 -55 10 -40 11
-45 14 -47 1 -2 3 -10 5 -18 2 -8 15 -55 29 -105 15 -49 31 -108 37 -130 13
-46 24 -81 34 -110 4 -11 9 -27 10 -35 1 -8 19 -71 39 -140 21 -69 39 -132 41
-141 2 -9 13 -49 25 -89 12 -40 23 -80 25 -89 2 -9 18 -63 35 -121 17 -58 40
-136 51 -175 19 -66 55 -192 64 -225 2 -8 11 -40 20 -70 9 -30 23 -80 31 -110
8 -30 18 -66 23 -80 5 -14 14 -43 20 -65 13 -48 33 -116 61 -210 11 -39 22
-79 25 -90 2 -11 13 -51 25 -90 12 -38 23 -77 25 -85 2 -8 4 -16 5 -17 2 -2 3
-6 4 -10 3 -18 28 -109 33 -123 4 -8 8 -24 10 -35 6 -28 9 -38 16 -55 8 -21
137 -471 140 -490 2 -8 5 -19 9 -25 5 -10 19 -66 20 -82 0 -5 4 -16 10 -26 5
-10 11 -28 13 -39 3 -11 12 -46 21 -77 9 -31 17 -60 19 -66 1 -5 5 -17 8 -25
5 -13 19 -66 21 -80 1 -3 7 -23 14 -45 17 -54 141 -487 159 -555 7 -30 17 -62
20 -70 3 -8 8 -24 10 -35 2 -11 8 -31 13 -45 8 -22 68 -231 90 -315 5 -16 24
-85 44 -152 20 -67 37 -130 39 -140 2 -10 7 -25 10 -33 6 -13 101 -346 112
-390 3 -8 18 -62 35 -120 17 -58 37 -127 45 -155 8 -27 25 -88 39 -135 35
-123 65 -227 83 -290 8 -30 19 -64 23 -75 5 -11 11 -31 13 -45 3 -14 20 -74
37 -135 18 -60 33 -117 35 -125 2 -8 8 -27 14 -42 6 -16 8 -28 5 -28 -2 0 2
-13 11 -30 9 -16 13 -30 11 -30 -3 0 -1 -12 5 -27 6 -16 12 -35 14 -43 2 -8 9
-35 16 -60 7 -25 14 -49 15 -55 2 -5 21 -73 43 -150 23 -77 41 -141 41 -142 0
-2 279 -3 619 -3 l619 0 11 32 c6 18 28 94 50 168 22 74 60 205 86 290 25 85
48 162 50 170 2 8 18 60 35 115 17 55 33 109 35 119 5 23 24 85 32 106 3 8 7
22 9 30 2 8 35 121 74 250 38 129 82 276 96 325 14 50 28 97 31 105 3 8 7 20
9 25 1 6 12 42 24 80 40 132 60 200 65 217 5 23 36 129 43 148 3 8 6 17 7 20
11 40 37 129 42 140 3 8 7 22 8 30 3 19 41 145 56 185 6 17 12 37 13 45 2 15
43 153 53 180 3 8 7 20 8 25 2 6 13 44 26 85 12 41 23 80 25 85 1 6 10 37 20
70 10 33 19 62 19 65 1 3 4 12 8 20 4 13 69 231 82 280 2 8 18 62 36 120 17
58 32 110 33 115 2 6 6 17 9 25 8 21 38 122 41 140 2 8 6 22 9 30 10 26 27 86
32 109 2 11 7 26 10 31 4 6 8 21 11 34 2 12 15 58 29 100 14 43 27 85 29 94 2
10 5 24 8 32 3 8 13 42 23 75 9 33 20 71 25 85 5 14 18 59 30 100 12 41 29 98
38 125 9 28 17 55 18 62 1 7 9 34 17 60 32 104 68 224 102 343 20 69 39 132
42 140 3 8 7 20 9 25 18 62 58 201 84 285 41 137 60 201 65 220 2 8 4 15 5 15
1 0 3 7 5 15 1 8 10 38 18 65 9 28 28 91 42 140 15 50 34 113 43 140 9 28 17
56 18 63 2 13 52 177 61 202 4 11 8 8 13 -10 16 -50 61 -200 65 -217 3 -10 20
-70 40 -133 20 -63 37 -124 40 -134 5 -23 24 -86 32 -106 3 -8 7 -22 9 -30 2
-8 10 -37 18 -65 82 -272 128 -423 131 -440 5 -22 48 -163 71 -234 8 -25 14
-50 14 -57 0 -7 5 -25 12 -41 12 -30 14 -37 22 -68 2 -11 14 -51 26 -89 12
-38 23 -76 25 -85 2 -9 8 -29 15 -46 6 -16 11 -30 10 -30 -1 0 8 -34 20 -75
12 -41 23 -79 25 -85 1 -5 4 -17 7 -25 10 -26 50 -161 53 -179 2 -9 4 -16 5
-16 1 0 3 -7 5 -15 2 -8 20 -69 40 -135 20 -66 38 -124 39 -130 1 -5 9 -30 16
-55 7 -25 15 -49 16 -55 2 -5 12 -41 24 -80 12 -38 22 -74 24 -80 18 -69 28
-103 33 -115 3 -8 7 -21 9 -27 1 -7 11 -41 22 -75 17 -54 39 -129 47 -163 1
-5 7 -23 13 -38 7 -16 12 -32 12 -37 0 -5 7 -29 15 -53 8 -24 16 -52 18 -63 2
-10 7 -26 10 -34 7 -18 49 -161 51 -175 1 -5 4 -14 7 -20 3 -5 12 -32 18 -60
7 -27 15 -57 18 -65 4 -8 7 -19 9 -25 7 -24 35 -121 39 -135 2 -8 27 -91 55
-185 27 -93 59 -201 71 -240 11 -38 27 -87 35 -108 7 -20 14 -39 14 -42 0 -3
0 -6 1 -7 0 -2 2 -11 4 -20 2 -10 13 -48 24 -85 12 -38 28 -90 36 -118 33
-109 69 -231 71 -240 2 -5 10 -35 19 -65 9 -30 17 -59 18 -65 2 -5 5 -14 8
-20 4 -5 12 -35 19 -65 7 -30 17 -61 23 -67 5 -7 7 -13 4 -13 -5 0 34 -140 50
-180 3 -8 7 -22 9 -30 3 -16 23 -85 59 -200 35 -115 69 -224 70 -230 1 -9 57
-204 63 -220 6 -17 10 -32 16 -57 3 -10 5 -19 6 -20 2 -2 3 -6 4 -10 1 -8 33
-109 62 -202 7 -24 11 -47 8 -52 -3 -5 -1 -9 5 -9 5 0 11 -10 13 -22 l3 -23
621 -3 621 -2 32 107 c18 60 34 116 36 125 2 10 24 88 49 175 26 87 48 168 51
181 2 12 7 26 10 32 3 5 17 51 31 102 26 94 49 178 79 278 9 30 17 60 18 65 2
6 6 16 10 23 5 6 6 12 3 12 -3 0 1 19 10 41 8 23 16 51 18 63 3 12 21 77 41
146 21 69 38 130 39 135 3 13 32 110 58 198 11 37 21 73 22 80 1 7 9 37 18 67
39 127 60 202 63 218 2 9 4 17 5 17 1 0 3 7 5 15 2 8 13 47 25 85 11 39 23 79
25 90 5 23 32 112 48 165 6 19 12 42 13 50 1 8 9 38 19 65 10 28 19 59 21 70
2 11 15 58 29 105 15 47 28 96 31 109 3 13 9 32 15 43 5 10 8 18 5 18 -3 0 3
24 13 53 10 28 18 54 18 57 0 3 8 32 18 65 9 33 18 65 20 70 1 6 4 17 7 25 6
16 28 94 33 119 2 9 18 63 35 121 29 96 47 159 53 185 1 6 6 16 10 23 5 6 6
12 3 12 -3 0 1 18 9 40 8 22 14 42 14 45 1 12 14 61 20 70 3 6 6 15 7 21 2 12
31 119 39 142 3 7 5 16 6 20 4 13 50 176 65 227 8 28 17 57 19 65 2 8 22 78
45 155 22 77 43 151 46 164 3 14 7 28 10 33 3 4 7 18 9 30 6 29 45 166 56 198
5 14 12 36 15 50 6 31 9 41 17 60 3 8 11 35 18 60 7 25 14 50 15 55 2 6 8 26
13 45 5 19 14 50 19 68 6 17 8 32 5 32 -3 0 -1 6 5 13 5 6 13 28 18 47 10 45
8 38 23 90 7 25 14 50 16 55 1 6 5 17 8 25 5 15 65 221 72 250 3 8 11 40 20
70 9 30 18 62 20 70 20 70 54 188 59 200 3 8 8 26 10 40 3 14 15 57 26 95 12
39 23 77 25 85 2 8 4 15 5 15 1 0 3 7 5 15 2 8 13 47 25 85 12 39 22 77 22 85
1 8 5 21 11 28 5 6 7 12 4 12 -4 0 0 18 8 40 8 22 14 41 14 43 0 1 2 9 5 17
20 65 66 233 66 245 0 8 5 15 11 15 5 0 8 4 5 8 -4 8 36 164 54 207 4 11 16
49 25 85 22 82 48 175 75 265 12 39 23 77 25 85 2 8 22 80 45 160 23 80 43
152 45 160 2 8 8 26 13 40 5 14 10 27 10 30 0 3 3 12 6 20 12 37 36 129 36
139 0 8 -162 11 -567 11 -311 0 -564 -3 -561 -6 4 -3 2 -20 -4 -37 -11 -39
-49 -168 -52 -182 -14 -54 -18 -72 -23 -85 -3 -8 -7 -22 -8 -30 -2 -8 -18 -64
-35 -125 -18 -60 -33 -117 -35 -125 -2 -8 -20 -73 -40 -145 -20 -71 -39 -139
-41 -150 -3 -11 -6 -24 -8 -30 -2 -5 -6 -23 -10 -40 -4 -16 -10 -37 -13 -45
-9 -23 -43 -141 -49 -170 -2 -14 -9 -39 -15 -56 -5 -17 -11 -40 -14 -50 -2
-10 -14 -50 -25 -89 -12 -38 -23 -79 -24 -90 -2 -11 -4 -20 -5 -20 -3 0 -6
-11 -14 -51 -3 -11 -19 -67 -36 -125 -16 -57 -56 -196 -87 -309 -31 -113 -72
-261 -91 -330 -20 -69 -37 -132 -38 -140 -1 -8 -5 -22 -8 -30 -6 -15 -28 -95
-33 -116 -1 -6 -10 -38 -19 -70 -9 -33 -19 -66 -21 -74 -12 -50 -37 -136 -42
-145 -3 -5 -7 -16 -7 -25 -1 -8 -12 -51 -24 -95 -13 -44 -25 -87 -27 -95 -2
-8 -13 -46 -24 -85 -50 -178 -68 -246 -74 -275 -3 -11 -7 -24 -10 -28 -3 -5
-8 -22 -11 -38 -7 -32 -9 -42 -17 -64 -8 -21 -49 -171 -52 -190 -1 -8 -7 -31
-13 -50 -23 -72 -53 -176 -56 -195 -2 -11 -9 -38 -15 -60 -6 -22 -12 -44 -13
-50 0 -5 -5 -17 -10 -26 -4 -9 -10 -27 -13 -40 -5 -28 -71 -270 -86 -314 -5
-16 -18 -64 -29 -105 -11 -41 -27 -100 -35 -130 -9 -30 -18 -68 -21 -84 -3
-16 -10 -37 -16 -47 -5 -11 -7 -19 -4 -19 3 0 1 -8 -4 -18 -6 -11 -12 -30 -15
-43 -2 -13 -19 -73 -36 -134 -18 -60 -33 -117 -35 -125 -1 -8 -5 -22 -8 -30
-5 -13 -21 -72 -33 -120 -4 -17 -108 -387 -130 -465 -17 -59 -23 -81 -30 -114
-3 -13 -10 -34 -16 -45 -6 -12 -11 -22 -10 -24 4 -5 -29 -136 -49 -192 -5 -14
-11 -36 -13 -50 -3 -14 -17 -65 -31 -115 -15 -49 -31 -108 -36 -130 -5 -22
-12 -47 -16 -55 -6 -16 -9 -26 -11 -48 -4 -28 -21 1 -33 54 -7 30 -16 57 -21
60 -4 3 -8 16 -8 29 0 13 -4 34 -9 47 -5 13 -19 57 -31 98 -12 41 -26 86 -31
100 -5 14 -10 34 -12 45 -2 11 -7 27 -10 35 -6 14 -47 154 -52 175 -1 6 -5 17
-8 25 -6 14 -50 165 -97 330 -10 36 -30 103 -44 150 -15 47 -29 94 -31 106 -3
11 -14 50 -26 85 -11 35 -22 72 -24 81 -2 10 -22 78 -43 150 -22 73 -42 142
-45 153 -3 11 -19 65 -36 120 -33 112 -102 345 -106 360 -1 6 -5 17 -8 25 -9
23 -41 134 -42 145 -1 6 -10 39 -22 75 -11 36 -26 88 -33 115 -7 28 -17 56
-23 63 -5 6 -7 12 -4 12 4 0 0 19 -9 41 -8 23 -16 51 -18 63 -2 12 -11 41 -19
66 -8 25 -27 88 -42 140 -14 52 -29 102 -32 110 -3 8 -7 20 -8 25 0 6 -4 17
-7 25 -3 8 -11 35 -18 60 -7 25 -16 56 -21 70 -4 14 -22 72 -39 130 -17 58
-38 130 -47 160 -10 30 -18 60 -19 65 -1 6 -32 111 -69 235 -36 124 -68 232
-70 240 -2 8 -20 69 -40 135 -20 66 -52 174 -71 240 -20 66 -44 149 -55 185
-11 36 -22 72 -24 80 -2 8 -11 40 -20 70 -9 30 -18 62 -20 70 -2 8 -18 60 -35
115 -17 55 -32 107 -35 116 -9 41 -48 168 -60 202 -8 20 -13 37 -11 37 3 0 -6
30 -18 68 -13 37 -23 69 -24 72 -2 19 -15 68 -22 85 -5 11 -12 34 -16 50 -10
40 -11 45 -14 48 -1 1 -3 9 -5 17 -3 14 -72 252 -80 278 -3 7 -5 13 -5 15 0 1
-14 47 -31 102 -17 55 -35 114 -39 130 -5 17 -18 62 -29 100 -12 39 -24 79
-26 90 -3 11 -18 63 -34 115 l-28 95 -541 3 c-509 2 -541 1 -546 -15 -2 -10
-17 -58 -32 -107 -14 -49 -27 -94 -28 -100 -2 -6 -13 -45 -26 -86 -13 -41 -24
-79 -26 -85 -1 -5 -10 -37 -20 -70 -10 -33 -19 -64 -20 -70 -1 -5 -23 -80 -49
-165 -25 -85 -48 -162 -50 -170 -2 -8 -18 -62 -35 -120 -18 -58 -33 -109 -34
-115 -2 -5 -13 -44 -26 -85 -13 -41 -24 -82 -25 -90 -1 -8 -7 -28 -13 -43 -7
-16 -12 -32 -12 -36 0 -4 -9 -35 -20 -68 -11 -34 -22 -72 -24 -84 -3 -13 -5
-25 -7 -26 -1 -2 -3 -7 -4 -13 -1 -5 -4 -12 -5 -15 -1 -3 -3 -8 -4 -12 -9 -34
-28 -101 -32 -113 -3 -8 -5 -16 -5 -17 0 -2 -6 -21 -14 -43 -8 -22 -15 -44
-16 -48 -1 -4 -3 -11 -5 -17 -2 -5 -8 -30 -15 -55 -16 -57 -15 -54 -34 -120
-9 -30 -18 -63 -20 -72 -2 -9 -9 -26 -15 -38 -6 -12 -9 -24 -6 -27 3 -3 -1
-18 -10 -34 -8 -16 -14 -31 -14 -34 1 -14 -30 -123 -67 -235 -8 -25 -17 -56
-19 -70 -3 -14 -9 -36 -14 -50 -12 -35 -63 -202 -66 -220 -3 -17 -29 -104 -51
-170 -8 -25 -16 -52 -18 -60 -2 -8 -20 -71 -40 -140 -20 -69 -38 -129 -39
-135 -1 -5 -13 -44 -25 -85 -13 -41 -25 -82 -26 -90 -2 -8 -4 -16 -5 -17 -2
-2 -4 -7 -5 -13 -1 -5 -3 -11 -5 -12 -1 -2 -3 -10 -5 -18 -3 -15 -53 -187
-103 -350 -14 -47 -27 -89 -28 -95 -2 -14 -55 -197 -62 -215 -8 -22 -8 -23
-16 -55 -4 -16 -11 -41 -16 -55 -5 -14 -18 -59 -30 -100 -12 -41 -28 -94 -36
-117 -7 -23 -15 -52 -18 -65 -2 -13 -11 -43 -19 -68 -13 -40 -44 -142 -54
-177 -1 -7 -5 -19 -6 -25 -11 -39 -39 -135 -44 -148 -3 -8 -7 -19 -8 -25 -2
-5 -13 -44 -25 -85 -13 -41 -24 -82 -24 -90 -1 -9 -4 -20 -8 -25 -3 -6 -12
-35 -21 -65 -9 -30 -31 -102 -48 -160 -17 -58 -32 -109 -33 -115 -1 -5 -5 -16
-9 -22 -5 -7 -5 -17 -2 -23 3 -5 1 -10 -6 -10 -7 0 -10 -3 -6 -6 3 -3 -1 -25
-10 -47 -8 -23 -17 -53 -19 -67 -3 -14 -9 -36 -14 -50 -8 -21 -77 -256 -85
-285 -1 -5 -5 -17 -8 -25 -6 -15 -66 -223 -72 -250 -2 -8 -20 -68 -39 -132
-20 -64 -36 -125 -36 -135 -1 -16 -2 -16 -10 -2 -9 15 -18 46 -51 169 -14 50
-15 56 -44 155 -14 50 -28 101 -31 115 -3 14 -14 57 -25 95 -32 107 -46 157
-55 190 -4 17 -8 32 -9 35 -9 31 -28 98 -30 110 -2 8 -8 27 -14 43 -6 15 -8
27 -6 27 2 0 0 12 -5 26 -6 14 -19 58 -30 97 -10 40 -26 97 -35 127 -9 30 -18
64 -20 74 -4 19 -43 157 -70 251 -12 43 -34 122 -41 148 -1 4 -2 8 -4 10 -1 1
-3 9 -5 18 -4 20 -51 192 -64 234 -9 27 -27 93 -37 135 -7 29 -43 156 -57 203
-8 26 -13 47 -11 47 2 0 -1 12 -7 28 -10 25 -36 116 -43 151 -2 9 -6 23 -9 31
-3 8 -8 24 -10 35 -3 11 -13 45 -22 75 -9 30 -18 64 -20 75 -2 11 -13 52 -25
90 -12 39 -23 81 -26 95 -3 14 -9 39 -14 55 -6 17 -18 57 -27 90 -19 69 -17
61 -27 100 -4 17 -19 68 -33 115 -14 46 -27 93 -29 104 -5 25 -71 261 -84 303
-6 18 -13 40 -14 50 -2 10 -27 101 -56 203 -28 102 -53 192 -55 200 -1 8 -17
65 -34 125 -17 61 -36 126 -41 145 -5 19 -18 67 -29 105 -11 39 -30 104 -41
145 -11 41 -25 91 -31 110 -6 19 -11 42 -13 50 -1 8 -10 40 -19 70 -17 54
-105 371 -133 480 -8 30 -19 69 -24 85 -4 17 -15 55 -24 85 -8 30 -51 186 -96
345 -45 160 -84 300 -86 313 -3 13 -11 42 -19 65 -8 23 -21 69 -29 102 -8 33
-28 105 -43 160 l-29 100 -566 3 -566 2 29 -97z"/>
</g>
</svg>
